<?xml version="1.0" encoding="utf-8"?>
<!-- Generator: Adobe Illustrator 17.0.2, SVG Export Plug-In . SVG Version: 6.00 Build 0)  -->
<!DOCTYPE svg PUBLIC "-//W3C//DTD SVG 1.1//EN" "http://www.w3.org/Graphics/SVG/1.1/DTD/svg11.dtd">
<svg version="1.1" id="Layer_1" xmlns="http://www.w3.org/2000/svg" xmlns:xlink="http://www.w3.org/1999/xlink" x="0px" y="0px"
	 width="612px" height="792px" viewBox="0 0 612 792" enable-background="new 0 0 612 792" xml:space="preserve">
<g>
	<path fill="#936F5A" d="M191.178,682.562c-5.628,0.637-10.776,0.955-15.447,0.955c-4.884,0-8.017-3.344-9.396-10.032l-3.663-17.676
		c-2.018-10.191-3.77-23.938-5.255-41.244c-2.018,19.642-3.663,33.389-4.937,41.244l-4.459,26.753
		c-5.203,0.53-10.829,0.796-16.879,0.796c-4.459,0-7.325-3.289-8.599-9.873c-2.229-10.722-5.255-27.761-9.077-51.117
		c-3.822-23.354-6.37-38.907-7.644-46.658c-0.107-0.529-0.159-1.219-0.159-2.069c0-0.956,0.291-1.618,0.875-1.991
		c0.583-0.37,1.672-0.557,3.265-0.557h14.81l7.962,52.231c2.229,14.332,3.715,28.081,4.458,41.244h1.274
		c0.319-12.951,1.645-26.698,3.981-41.244l6.847-42.678c0.211-1.804,0.583-3.05,1.115-3.742c0.53-0.688,1.592-1.035,3.185-1.035
		h0.956h11.465l8.281,47.455c1.804,10.405,3.344,24.152,4.618,41.244h1.274c0.53-13.588,1.804-27.335,3.822-41.244l6.847-47.455
		c0.211-1.804,0.583-3.05,1.115-3.742c0.53-0.688,1.538-1.034,3.026-1.034h15.446L191.178,682.562z"/>
	<path fill="#936F5A" d="M256.148,666.798c0,4.247-0.055,7.644-0.159,10.191c-0.107,2.548-0.346,4.115-0.717,4.697
		c-0.373,0.585-1.09,0.876-2.15,0.876H215.86V574.277c0-0.53,0.211-1.194,0.637-1.99c0.423-0.797,1.274-1.194,2.548-1.194h38.219
		c0,4.035-0.055,7.325-0.159,9.873c-0.107,2.548-0.374,4.167-0.796,4.856c-0.425,0.691-1.169,1.035-2.229,1.035h-20.542v27.23
		h19.428c0,3.929-0.055,7.193-0.159,9.794c-0.107,2.603-0.346,4.326-0.717,5.175c-0.373,0.852-1.035,1.274-1.99,1.274h-16.562
		v36.467H256.148z"/>
	<path fill="#936F5A" d="M305.911,571.968c0.583-0.37,2.309-0.609,5.175-0.716c2.866-0.104,6.74-0.159,11.625-0.159v108.285
		c0,2.125-1.062,3.185-3.186,3.185h-13.694l-16.88-42.677c-3.08-7.749-6.317-19.64-9.714-35.671
		c1.486,13.165,2.229,25.479,2.229,36.944v38.219c0,1.169-0.266,1.938-0.796,2.309c-0.533,0.373-2.257,0.612-5.176,0.717
		c-2.921,0.106-6.822,0.159-11.704,0.159V574.277c0-2.123,1.06-3.185,3.185-3.185h14.014l16.721,41.881
		c2.652,6.688,5.785,17.941,9.395,33.759c-1.38-12.844-2.069-24.628-2.069-35.352v-37.104
		C305.035,573.11,305.326,572.342,305.911,571.968z"/>
	<path fill="#936F5A" d="M368.333,575.232c4.404,2.762,7.723,7.778,9.952,15.049c2.229,7.272,3.345,17.597,3.345,30.973
		c0,21.445-2.389,37.024-7.166,46.738s-12.528,14.57-23.249,14.57h-20.543V574.277c0-2.123,1.485-3.185,4.459-3.185h15.287
		C357.955,571.093,363.926,572.474,368.333,575.232z M356.788,662.418c1.378-2.281,2.493-6.848,3.344-13.694
		c0.849-6.848,1.274-16.642,1.274-29.381c0-9.129-0.398-16.004-1.194-20.622c-0.797-4.618-1.887-7.695-3.265-9.235
		c-1.381-1.538-3.185-2.31-5.414-2.31h-3.186v78.666h3.345C353.708,665.842,355.407,664.702,356.788,662.418z"/>
	<path fill="#936F5A" d="M418.018,681.687c-0.478,0.373-2.177,0.612-5.096,0.717c-2.921,0.106-6.875,0.159-11.863,0.159v-45.703
		l-19.906-63.06c-0.318-0.956-0.187-1.593,0.398-1.911c0.582-0.318,2.573-0.53,5.972-0.637c3.396-0.104,8.015-0.159,13.854-0.159
		l4.618,20.86c0.848,3.718,1.751,8.813,2.707,15.287c0.955,6.477,1.592,11.625,1.91,15.447c0.319-3.715,0.98-8.839,1.991-15.367
		c1.008-6.529,1.936-11.704,2.786-15.526l3.822-17.517c0.318-1.167,0.821-1.936,1.513-2.31c0.689-0.37,2.493-0.609,5.414-0.716
		c2.919-0.104,6.928-0.159,12.023-0.159l-19.428,64.652v43.633C418.734,680.547,418.495,681.316,418.018,681.687z"/>
	<path fill="#936F5A" d="M446.362,558.193c1.963-2.016,4.379-3.025,7.245-3.025c3.607,0,6.37,1.01,8.28,3.025
		c1.911,2.019,2.867,4.885,2.867,8.6c0,4.035-0.931,7.962-2.787,11.784c-1.858,3.821-3.956,6.954-6.29,9.395
		c-2.337,2.443-4.141,3.663-5.414,3.663c-3.718,0-5.947-1.538-6.688-4.618c1.697-2.76,2.732-4.802,3.105-6.131
		c0.37-1.326,0.769-3.316,1.194-5.972c-2.974-1.593-4.459-4.723-4.459-9.396C443.416,562.652,444.396,560.212,446.362,558.193z"/>
	<path fill="#936F5A" d="M473.67,605.011c-1.274-3.607-1.911-7.325-1.911-11.146c0-7.43,2.44-13.35,7.325-17.756
		c4.882-4.404,11.889-6.608,21.021-6.608c14.436,0,21.656,2.974,21.656,8.918c0,3.503-1.381,6.795-4.14,9.873
		c-0.956-0.742-2.814-1.459-5.574-2.15c-2.762-0.689-5.521-1.035-8.28-1.035c-8.494,0-12.739,2.762-12.739,8.281
		c0,2.443,0.423,4.673,1.273,6.688c0.849,2.019,2.389,4.514,4.618,7.484l15.287,19.587c3.715,4.777,6.235,9.104,7.564,12.979
		c1.326,3.877,1.99,8.201,1.99,12.979c0,20.701-9.661,31.053-28.981,31.053c-6.796,0-11.971-1.035-15.526-3.105
		c-3.559-2.07-5.335-4.591-5.335-7.564c0-4.459,1.326-8.703,3.981-12.739c1.696,1.593,3.901,2.866,6.608,3.822
		c2.707,0.955,5.439,1.433,8.201,1.433c4.244,0,7.271-1.06,9.076-3.185c1.805-2.122,2.708-5.2,2.708-9.236
		c0-2.759-0.506-5.359-1.514-7.803c-1.01-2.44-2.894-5.519-5.652-9.236l-14.491-19.269
		C477.332,612.71,474.943,608.621,473.67,605.011z"/>
</g>
<g>
	<path fill="#FF7546" d="M284.337,725.581c-1.824,4.319-7.679,7.486-12.189,7.486c-1.439,0-2.879-0.288-4.319-0.768
		c-1.919,3.455-5.183,6.622-9.406,6.622c-4.607,0-6.047-2.783-7.774-6.431c-2.688,2.592-6.046,6.239-10.078,6.239
		c-3.839,0-5.471-2.112-5.471-5.759c0-3.455,2.879-17.181,7.198-17.181c1.056,0,2.208,0.769,2.208,1.92
		c0,0.288-5.471,9.79-5.471,14.396c0,1.248,0.48,3.359,2.016,3.359c3.167,0,8.734-6.335,9.022-9.406
		c0.288-2.495,0.576-9.501,4.127-9.501c1.344,0,1.631,1.439,1.631,2.495c0,3.167-2.015,5.95-2.015,9.118
		c0,2.879,1.728,7.294,5.279,7.294c2.687,0,5.086-2.879,6.238-4.991c-1.056-1.247-1.344-2.975-1.344-4.606
		c0-2.016,1.344-8.254,4.031-8.254c1.919,0,2.111,3.167,2.111,4.511c0,2.304-0.384,4.606-0.864,6.814
		c1.056,0.576,2.208,0.863,3.455,0.863c7.006,0,8.542-6.238,10.462-6.238c0.672,0,1.344,0.672,1.344,1.344
		C284.529,725.197,284.433,725.389,284.337,725.581z"/>
	<path fill="#FF7546" d="M316.492,725.485c-1.344,4.127-7.486,5.95-11.325,5.471c-2.496,4.99-8.83,8.83-14.396,8.83
		c-5.951,0-10.174-4.896-10.174-10.654c0-7.966,7.774-14.013,15.356-14.013c1.248,0,4.511,0,4.991,1.44
		c0.288,0.096,0.576,0.096,0.864,0.096c3.359,0.191,4.991,5.278,4.991,8.158c0,1.056-0.192,2.207-0.48,3.167
		c0.288,0.096,0.672,0.096,0.959,0.096c4.991,0,7.103-4.318,8.254-4.318c0.672,0,1.151,0.575,1.151,1.151
		C316.684,725.102,316.588,725.197,316.492,725.485z M291.73,737.003c4.031,0,8.254-3.647,10.078-7.103
		c-3.263-1.824-6.334-4.799-6.334-8.734c0-1.056,0.288-2.207,0.768-3.167h-0.384c-6.334-0.096-11.325,4.415-11.325,10.846
		C284.532,732.972,287.315,737.003,291.73,737.003z M300.176,720.015c-0.96,0-1.248,1.151-1.248,1.919
		c0,2.304,2.016,4.127,3.936,5.087c0.192-0.768,0.384-1.535,0.384-2.399C303.248,723.086,302,720.015,300.176,720.015z"/>
	<path fill="#FF7546" d="M319.181,722.318c1.632,0,5.854-3.168,6.238-4.8c0.288-1.343,1.248-3.071,2.783-3.071
		c0.96,0,1.536,1.152,1.536,2.016c0,0.864-0.48,1.728-1.056,2.304c-1.439,1.536-2.208,7.486-2.208,9.694
		c0,2.687,0.576,5.95,3.936,5.95c6.719,0,8.542-10.462,10.941-10.462c0.672,0,1.151,0.576,1.151,1.152v0.479
		c-1.535,5.663-7.006,12.573-13.341,12.573c-4.895,0-5.95-4.127-5.95-8.158c0-2.304,0.288-4.511,0.672-6.814
		c-2.496,1.632-3.936,2.495-6.911,2.304c-0.479,0.288-1.056,0.672-1.631,0.672c-0.576,0-1.056-0.48-1.056-1.056
		c0-0.384,0.191-0.672,0.287-0.96c-0.384-0.768-0.479-1.632-0.479-2.399c0-2.304,2.208-10.653,5.183-10.653
		c0.96,0,1.536,1.056,1.536,1.919c0,2.399-2.304,9.118-2.208,9.311H319.181z"/>
	<path fill="#FF7546" d="M349.319,738.059c-8.158,0-9.694-10.654-9.694-16.893c0-6.143,3.552-32.44,11.997-32.44
		c3.168,0,4.415,3.743,4.415,6.335c0,9.501-6.526,21.595-12.188,28.889l-0.192,0.288c-0.384,0.384-0.384,0.96-0.384,1.439
		c0,3.071,3.647,8.927,7.006,8.927c6.047,0,7.583-10.75,9.886-10.75c0.864,0,1.152,0.576,1.152,1.344
		C361.316,730.476,355.174,738.059,349.319,738.059z M351.335,692.373c-0.576,0-0.96,0.384-1.344,0.768
		c-5.279,4.895-6.911,18.332-6.814,24.954v1.728c3.935-5.662,9.789-16.796,9.789-23.803
		C352.966,695.061,352.679,692.373,351.335,692.373z"/>
	<path fill="#FF7546" d="M393.757,725.389c-1.44,4.703-5.279,11.71-10.941,11.71c-3.84,0-7.007-3.167-8.542-6.431
		c-2.304,3.455-6.719,8.062-11.134,8.062c-4.223,0-5.471-4.224-5.471-7.679c0-6.431,4.991-20.06,12.765-20.06
		c0.672,0,1.344,0.097,2.016,0.288c0.288-4.415,2.688-19.963,8.351-19.963c3.551,0,3.935,5.95,3.935,8.445
		c0,8.542-4.031,18.908-7.678,26.49c0.768,2.688,2.591,7.294,6.046,7.294c5.855,0,7.103-10.077,9.406-10.077
		c0.768,0,1.248,0.672,1.248,1.439V725.389z M373.121,727.021c-0.863-3.646-0.96-7.006-0.96-10.749c0-1.152-1.344-1.92-2.399-1.92
		c-4.415,0-8.638,11.709-8.638,15.645c0,2.016,0.672,5.278,3.264,5.278C367.65,735.274,371.586,729.42,373.121,727.021z
		 M381.279,701.011c0-1.439-0.191-4.127-0.96-5.278c-3.359,4.415-4.511,15.068-4.511,20.539c0,1.728,0.096,3.359,0.288,5.087
		C378.592,715.407,381.279,707.441,381.279,701.011z"/>
</g>
<g>
	<path fill="#EBE0DB" d="M365.789,203.525c0,0,30.237-8.965,46.783,56.254c0,0,47.284,186.077-68.12,169.251
		c0,0-79.056-14.645-96.29-45.422c0,0-25.629-30.887,33.271-97.964c0,0,21.946-47.913,13.923-60.541
		C295.356,225.103,283.208,200.96,365.789,203.525z"/>
	<path fill="#FF7546" d="M213.892,138.857c0,0-5.699,43.899,0.577,87.957c0,0,10.537,6.948,22.772,2.957
		c0,0-1.143-77.15-4.129-84.233C233.112,145.537,222.304,123.489,213.892,138.857z"/>
	<path fill="#FF7546" d="M239.861,150.041c1.133-0.132-3.675,83.242,2.943,82.629c2.259-0.209,15.057,4.519,24.671-0.926
		c0,0-5.851-90.316-27.472-82.8"/>
	<path fill="#F5EFEC" d="M388.641,189.261c-1.499,1.488-2.984,2.935-4.454,4.326c-38.877,36.743-70.717,40.175-94.408,32.086
		c-31.675-10.8-48.808-42.193-48.808-42.193c-49.964-100.788,9.49-133.244,9.49-133.244c87.307-45.018,134.446,8.809,134.446,8.809
		C437.686,138.154,388.641,189.261,388.641,189.261z"/>
	<path fill="#E0D1CA" d="M283.782,286.33c-10.539,12.001-18.373,22.846-24.13,32.563c-12.873,3.567-35.584,9.706-55.079,14.234
		c-6.923-8.474-8.613-18.587-8.613-18.587c-8.222-40.79,26.127-34.979,26.127-34.979c18.325,4.316,56.775-20.55,75.935-34.087
		C294.137,263.721,283.782,286.33,283.782,286.33z"/>
	<path fill="#D5C3B9" d="M259.622,395.103c-34.011,26.934-73.115,30.437-73.115,30.437c-45.316,12.518-47.509-26.505-47.509-26.505
		c0.193-55.187,40.223-60.829,40.223-60.829c6.527-0.925,15.535-2.797,25.351-5.08c19.495-4.528,42.205-10.666,55.079-14.234
		c-4.612,7.79-7.894,14.851-10.169,21.203c-10.74,30.017,1.027,44.195,1.027,44.195
		C252.671,388.145,255.798,391.747,259.622,395.103z"/>
	<path fill="#FF7546" d="M323.693,33.406c-0.022-0.006,0.338,0.023,0.993,0.028c11.368,0.096,116.526,1.64,115.378,140.342
		c0,0-0.162,17.34-6.66,25.148c0,0-7.459,5.381-12.884-4.899C420.521,194.026,433.914,61.041,323.693,33.406z"/>
	<path fill="#FF7546" d="M316.348,33.584c0,0-138.926-40.914-122.723,188.846c0,0,3.564,15.528,19.901,7.885
		C213.526,230.314,180.345,34.619,316.348,33.584z"/>
	<path fill="#FF7546" d="M321.74,35.247c0,0,116.572,17.785,93.45,170.46c-0.055,0.366-0.112,0.733-0.169,1.1
		c0,0-7.376,8.236-22.332-3.997C392.689,202.81,422.939,78.934,321.74,35.247z"/>
	<path fill="#FF7546" d="M316.666,35.511c0,0-90.669,73.042-98.273,84.33C218.394,119.841,234.674,37.421,316.666,35.511z"/>
	<path fill="#FF7546" d="M315.708,41.509c0,0,8.666,3.636,2.56,10.097c0,0-69.402,74.966-100.102,79.35c0,0-6.788-1.439,5.48-12.122
		L315.708,41.509z"/>
	<path fill="#FF7546" d="M317.996,57.536c0,0-0.742-7.386,9.007-2.306c0,0,53.03,13.092,46.198,116.707
		C373.201,171.937,346.516,73.854,317.996,57.536z"/>
	<path fill="#B3C9F0" d="M362.848,107.948c0,0-33.246-10.175-56.133,2.756c0,0-11.085,1.7-8.6,28.914
		c-8.577-3.306-15.959,5.009-18.233,7.961c-0.862-7.41-3.128-15.748-7.657-24.697c0,0-33.254-10.176-56.142,2.755
		c0,0-17.362,2.667-3.754,54.702c0,0,31.015,22.197,61.419,0.759c0.775-0.552,7.694-12.46,6.401-30.606
		c0.018-0.006,0.027-0.013,0.027-0.013c2.406-2.801,12.764-2.519,19.091-2.058c0.827,4.979,2.03,10.6,3.697,16.977
		c0,0,31.006,22.205,61.41,0.766C365.504,165.366,379.492,140.793,362.848,107.948z M267.42,175.548
		c-24.092,16.985-48.658-0.609-48.658-0.609c-10.785-41.223,2.973-43.337,2.973-43.337c18.136-10.242,44.476-2.185,44.476-2.185
		C279.396,155.442,268.315,174.911,267.42,175.548z M358.053,160.616c-24.092,16.985-48.658-0.609-48.658-0.609
		c-10.785-41.223,2.973-43.337,2.973-43.337c18.128-10.243,44.476-2.185,44.476-2.185
		C370.029,140.51,358.947,159.979,358.053,160.616z"/>
	<path fill="none" stroke="#936F5A" stroke-width="3.7649" stroke-miterlimit="10" d="M286.14,200.466
		c0,0,45.209,6.349,61.234-16.082"/>
	<path fill="#936F5A" d="M330.852,150.473c0,0-20.047-13.204-5.62-23.328c0,0,19.18-13.355,26.761,5.037
		C351.993,132.182,359.126,158.328,330.852,150.473z"/>
	<path fill="#936F5A" d="M240.665,163.148c0,0-20.047-13.204-5.62-23.328c0,0,19.18-13.355,26.761,5.037
		C261.806,144.857,268.939,171.003,240.665,163.148z"/>
	<path fill="#FF7546" d="M322.715,37.273c0,0-2.901,4.506-1.948,5.466c0,0,74.918,41.532,51.237,154.099
		c0,0,7.888,11.228,19.174,7.033C391.178,203.871,422.124,82.96,322.715,37.273z"/>
	<g>
		<path fill="#D5C3B9" d="M417.356,390.978c-2.47,16.986-14.845,33.48-25.222,47.563c-23.137,32.598-39.723,67.143-84.75,77.41
			c-35.351,7.922-68.215-21.389-73.564-53.833c-6.547-38.259,30.346-54.267,62.143-67.755c25.96-11.11,67.492-35.311,96.691-31.139
			c14.357,1.341,37.217,26.65,22.774,37.862"/>
	</g>
	<path fill="#E0D1CA" d="M475.697,403.782c0,0-31.34,34.771-63.952-1.993c-1.248-1.403-2.493-2.911-3.734-4.53
		c-5.132-6.645-10.26-15.157-15.278-25.947c0,0-2.082-5.305-4.633-13.915c-6.223-21.001-15.258-61.698-3.757-93.073
		c0,0,14.262-20.598,27.909-8.912c0,0,0.251,0.705,0.726,1.988c0.646,1.733,1.701,4.52,3.108,8.07
		c-0.002,0.007-0.002,0.007,0.003,0.015c9.19,23.25,33.37,79.258,55.836,87.121C471.925,352.606,509.632,368.568,475.697,403.782z"
		/>
</g>
<g>
</g>
<g>
</g>
<g>
</g>
<g>
</g>
<g>
</g>
<g>
</g>
</svg>
